<?xml version="1.0" encoding="utf-8" standalone="no"?>
<!DOCTYPE svg PUBLIC "-//W3C//DTD SVG 1.1//EN"
  "http://www.w3.org/Graphics/SVG/1.1/DTD/svg11.dtd">
<svg xmlns:xlink="http://www.w3.org/1999/xlink" width="540pt" height="259.2pt" viewBox="0 0 540 259.2" xmlns="http://www.w3.org/2000/svg" version="1.1">
 <metadata>
  <rdf:RDF xmlns:dc="http://purl.org/dc/elements/1.1/" xmlns:cc="http://creativecommons.org/ns#" xmlns:rdf="http://www.w3.org/1999/02/22-rdf-syntax-ns#">
   <cc:Work>
    <dc:type rdf:resource="http://purl.org/dc/dcmitype/StillImage"/>
    <dc:date>2026-05-18T15:22:36.052588</dc:date>
    <dc:format>image/svg+xml</dc:format>
    <dc:creator>
     <cc:Agent>
      <dc:title>Matplotlib v3.10.9, https://matplotlib.org/</dc:title>
     </cc:Agent>
    </dc:creator>
   </cc:Work>
  </rdf:RDF>
 </metadata>
 <defs>
  <style type="text/css">*{stroke-linejoin: round; stroke-linecap: butt}</style>
 </defs>
 <g id="figure_1">
  <g id="patch_1">
   <path d="M 0 259.2 
L 540 259.2 
L 540 0 
L 0 0 
L 0 259.2 
z
" style="fill: none; opacity: 0"/>
  </g>
  <g id="axes_1">
   <g id="patch_2">
    <path d="M 51.948 165.31776 
L 143.748 165.31776 
Q 154.548 165.31776 154.548 160.13376 
L 154.548 100.51776 
Q 154.548 95.33376 143.748 95.33376 
L 51.948 95.33376 
Q 41.148 95.33376 41.148 100.51776 
L 41.148 160.13376 
Q 41.148 165.31776 51.948 165.31776 
z
" clip-path="url(#p1193a89e5f)" style="opacity: 0.07"/>
   </g>
   <g id="patch_3">
    <path d="M 303.048 66.17376 
L 389.448 66.17376 
Q 400.248 66.17376 400.248 60.98976 
L 400.248 31.18176 
Q 400.248 25.99776 389.448 25.99776 
L 303.048 25.99776 
Q 292.248 25.99776 292.248 31.18176 
L 292.248 60.98976 
Q 292.248 66.17376 303.048 66.17376 
z
" clip-path="url(#p1193a89e5f)" style="opacity: 0.07"/>
   </g>
   <g id="patch_4">
    <path d="M 303.048 150.41376 
L 389.448 150.41376 
Q 400.248 150.41376 400.248 145.22976 
L 400.248 115.42176 
Q 400.248 110.23776 389.448 110.23776 
L 303.048 110.23776 
Q 292.248 110.23776 292.248 115.42176 
L 292.248 145.22976 
Q 292.248 150.41376 303.048 150.41376 
z
" clip-path="url(#p1193a89e5f)" style="opacity: 0.07"/>
   </g>
   <g id="patch_5">
    <path d="M 303.048 234.65376 
L 389.448 234.65376 
Q 400.248 234.65376 400.248 229.46976 
L 400.248 199.66176 
Q 400.248 194.47776 389.448 194.47776 
L 303.048 194.47776 
Q 292.248 194.47776 292.248 199.66176 
L 292.248 229.46976 
Q 292.248 234.65376 303.048 234.65376 
z
" clip-path="url(#p1193a89e5f)" style="opacity: 0.07"/>
   </g>
   <g id="patch_6">
    <path d="M 208.548 141.98976 
L 262.548 141.98976 
Q 273.348 141.98976 273.348 136.80576 
L 273.348 123.84576 
Q 273.348 118.66176 262.548 118.66176 
L 208.548 118.66176 
Q 197.748 118.66176 197.748 123.84576 
L 197.748 136.80576 
Q 197.748 141.98976 208.548 141.98976 
z
" clip-path="url(#p1193a89e5f)" style="opacity: 0.07"/>
   </g>
   <g id="line2d_1">
    <path d="M 291.6 195.526957 
L 153.9 148.828696 
" clip-path="url(#p1193a89e5f)" style="fill: none; stroke-dasharray: 2.88,3.36; stroke-dashoffset: 0; stroke: #e2ddd2; stroke-opacity: 0.9; stroke-width: 1.2"/>
   </g>
   <g id="patch_7">
    <path d="M 51.3 164.592 
L 143.1 164.592 
Q 153.9 164.592 153.9 159.408 
L 153.9 99.792 
Q 153.9 94.608 143.1 94.608 
L 51.3 94.608 
Q 40.5 94.608 40.5 99.792 
L 40.5 159.408 
Q 40.5 164.592 51.3 164.592 
z
" clip-path="url(#p1193a89e5f)" style="fill: #ffffff; stroke: #22466e; stroke-width: 1.6; stroke-linejoin: miter"/>
   </g>
   <g id="patch_8">
    <path d="M 302.4 65.448 
L 388.8 65.448 
Q 399.6 65.448 399.6 60.264 
L 399.6 30.456 
Q 399.6 25.272 388.8 25.272 
L 302.4 25.272 
Q 291.6 25.272 291.6 30.456 
L 291.6 60.264 
Q 291.6 65.448 302.4 65.448 
z
" clip-path="url(#p1193a89e5f)" style="fill: #ffffff; stroke: #4f7aa5; stroke-linejoin: miter"/>
   </g>
   <g id="patch_9">
    <path d="M 302.4 149.688 
L 388.8 149.688 
Q 399.6 149.688 399.6 144.504 
L 399.6 114.696 
Q 399.6 109.512 388.8 109.512 
L 302.4 109.512 
Q 291.6 109.512 291.6 114.696 
L 291.6 144.504 
Q 291.6 149.688 302.4 149.688 
z
" clip-path="url(#p1193a89e5f)" style="fill: #ffffff; stroke: #4f7aa5; stroke-linejoin: miter"/>
   </g>
   <g id="patch_10">
    <path d="M 302.4 233.928 
L 388.8 233.928 
Q 399.6 233.928 399.6 228.744 
L 399.6 198.936 
Q 399.6 193.752 388.8 193.752 
L 302.4 193.752 
Q 291.6 193.752 291.6 198.936 
L 291.6 228.744 
Q 291.6 233.928 302.4 233.928 
z
" clip-path="url(#p1193a89e5f)" style="fill: #ffffff; stroke: #9a8e76; stroke-linejoin: miter"/>
   </g>
   <g id="patch_11">
    <path d="M 207.9 141.264 
L 261.9 141.264 
Q 272.7 141.264 272.7 136.08 
L 272.7 123.12 
Q 272.7 117.936 261.9 117.936 
L 207.9 117.936 
Q 197.1 117.936 197.1 123.12 
L 197.1 136.08 
Q 197.1 141.264 207.9 141.264 
z
" clip-path="url(#p1193a89e5f)" style="fill: #ffffff; stroke: #9a9ba0; stroke-width: 0.7; stroke-linejoin: miter"/>
   </g>
   <g id="line2d_2">
    <path d="M 291.6 63.673043 
L 159.23646 108.561548 
" clip-path="url(#p1193a89e5f)" style="fill: none; stroke: #4f7aa5; stroke-width: 1.8; stroke-linecap: round"/>
   </g>
   <g id="line2d_3">
    <path d="M 197.1 129.6 
L 159.84 129.6 
" clip-path="url(#p1193a89e5f)" style="fill: none; stroke: #4f7aa5; stroke-width: 1.6; stroke-linecap: round"/>
   </g>
   <g id="line2d_4">
    <path d="M 291.6 129.6 
L 278.64 129.6 
" clip-path="url(#p1193a89e5f)" style="fill: none; stroke: #4f7aa5; stroke-width: 1.6; stroke-linecap: round"/>
   </g>
   <g id="patch_12">
    <path d="M 46.17 162 
L 47.25 162 
Q 48.6 162 48.6 161.352 
L 48.6 97.848 
Q 48.6 97.2 47.25 97.2 
L 46.17 97.2 
Q 44.82 97.2 44.82 97.848 
L 44.82 161.352 
Q 44.82 162 46.17 162 
z
" clip-path="url(#p1193a89e5f)" style="fill: #22466e"/>
   </g>
   <g id="patch_13">
    <path d="M 297.27 62.856 
L 298.35 62.856 
Q 299.7 62.856 299.7 62.208 
L 299.7 28.512 
Q 299.7 27.864 298.35 27.864 
L 297.27 27.864 
Q 295.92 27.864 295.92 28.512 
L 295.92 62.208 
Q 295.92 62.856 297.27 62.856 
z
" clip-path="url(#p1193a89e5f)" style="fill: #4f7aa5"/>
   </g>
   <g id="patch_14">
    <path d="M 297.27 147.096 
L 298.35 147.096 
Q 299.7 147.096 299.7 146.448 
L 299.7 112.752 
Q 299.7 112.104 298.35 112.104 
L 297.27 112.104 
Q 295.92 112.104 295.92 112.752 
L 295.92 146.448 
Q 295.92 147.096 297.27 147.096 
z
" clip-path="url(#p1193a89e5f)" style="fill: #4f7aa5"/>
   </g>
   <g id="patch_15">
    <path d="M 297.27 231.336 
L 298.35 231.336 
Q 299.7 231.336 299.7 230.688 
L 299.7 196.992 
Q 299.7 196.344 298.35 196.344 
L 297.27 196.344 
Q 295.92 196.344 295.92 196.992 
L 295.92 230.688 
Q 295.92 231.336 297.27 231.336 
z
" clip-path="url(#p1193a89e5f)" style="fill: #9a8e76"/>
   </g>
   <g id="patch_16">
    <path d="M 202.77 138.672 
L 203.85 138.672 
Q 205.2 138.672 205.2 138.024 
L 205.2 121.176 
Q 205.2 120.528 203.85 120.528 
L 202.77 120.528 
Q 201.42 120.528 201.42 121.176 
L 201.42 138.024 
Q 201.42 138.672 202.77 138.672 
z
" clip-path="url(#p1193a89e5f)" style="fill: #9a9ba0"/>
   </g>
   <g id="line2d_5">
    <path d="M 165.55464 109.265869 
L 153.9 110.371304 
L 159.964133 105.467764 
" clip-path="url(#p1193a89e5f)" style="fill: none; stroke: #4f7aa5; stroke-width: 1.8; stroke-linecap: round"/>
   </g>
   <g id="line2d_6">
    <path d="M 163.761361 131.71383 
L 153.9 129.6 
L 163.761361 127.48617 
" clip-path="url(#p1193a89e5f)" style="fill: none; stroke: #4f7aa5; stroke-width: 1.6; stroke-linecap: round"/>
   </g>
   <g id="line2d_7">
    <path d="M 282.561361 131.71383 
L 272.7 129.6 
L 282.561361 127.48617 
" clip-path="url(#p1193a89e5f)" style="fill: none; stroke: #4f7aa5; stroke-width: 1.6; stroke-linecap: round"/>
   </g>
   <g id="text_1">
    <!-- d = 1 -->
    <g style="fill: #4f7aa5" transform="translate(221.874476 95.803002) scale(0.09 -0.09)">
     <defs>
      <path id="IBMPlexSans-SmBld-64" d="M 2547 557 
L 2515 557 
Q 2426 269 2176 96 
Q 1926 -77 1594 -77 
Q 960 -77 624 377 
Q 288 832 288 1677 
Q 288 2515 624 2966 
Q 960 3418 1594 3418 
Q 1926 3418 2176 3248 
Q 2426 3078 2515 2790 
L 2547 2790 
L 2547 4736 
L 3366 4736 
L 3366 0 
L 2547 0 
L 2547 557 
z
M 1856 602 
Q 2150 602 2348 742 
Q 2547 883 2547 1146 
L 2547 2208 
Q 2547 2451 2348 2598 
Q 2150 2746 1856 2746 
Q 1536 2746 1341 2531 
Q 1146 2317 1146 1958 
L 1146 1382 
Q 1146 1024 1341 813 
Q 1536 602 1856 602 
z
" transform="scale(0.015625)"/>
      <path id="IBMPlexSans-SmBld-20" transform="scale(0.015625)"/>
      <path id="IBMPlexSans-SmBld-3d" d="M 429 2336 
L 429 2995 
L 3411 2995 
L 3411 2336 
L 429 2336 
z
M 429 909 
L 429 1574 
L 3411 1574 
L 3411 909 
L 429 909 
z
" transform="scale(0.015625)"/>
      <path id="IBMPlexSans-SmBld-31" d="M 582 0 
L 582 685 
L 1811 685 
L 1811 3859 
L 1754 3859 
L 781 2707 
L 256 3149 
L 1363 4467 
L 2637 4467 
L 2637 685 
L 3661 685 
L 3661 0 
L 582 0 
z
" transform="scale(0.015625)"/>
     </defs>
     <use xlink:href="#IBMPlexSans-SmBld-64"/>
     <use xlink:href="#IBMPlexSans-SmBld-20" transform="translate(59.999985 0)"/>
     <use xlink:href="#IBMPlexSans-SmBld-3d" transform="translate(83.599976 0)"/>
     <use xlink:href="#IBMPlexSans-SmBld-20" transform="translate(143.59996 0)"/>
     <use xlink:href="#IBMPlexSans-SmBld-31" transform="translate(167.199951 0)"/>
    </g>
   </g>
   <g id="text_2">
    <!-- d = 2 -->
    <g style="fill: #4f7aa5" transform="translate(212.526563 147.582) scale(0.09 -0.09)">
     <defs>
      <path id="IBMPlexSans-SmBld-32" d="M 3494 0 
L 397 0 
L 397 781 
L 1798 2010 
Q 2157 2323 2323 2576 
Q 2490 2829 2490 3123 
L 2490 3206 
Q 2490 3501 2298 3657 
Q 2106 3814 1830 3814 
Q 1485 3814 1305 3619 
Q 1126 3424 1050 3149 
L 320 3430 
Q 390 3654 518 3856 
Q 646 4058 841 4211 
Q 1037 4365 1299 4454 
Q 1562 4544 1901 4544 
Q 2253 4544 2528 4445 
Q 2803 4346 2992 4166 
Q 3181 3987 3280 3744 
Q 3379 3501 3379 3213 
Q 3379 2931 3289 2700 
Q 3200 2470 3046 2262 
Q 2893 2054 2688 1865 
Q 2483 1677 2253 1485 
L 1312 710 
L 3494 710 
L 3494 0 
z
" transform="scale(0.015625)"/>
     </defs>
     <use xlink:href="#IBMPlexSans-SmBld-64"/>
     <use xlink:href="#IBMPlexSans-SmBld-20" transform="translate(59.999985 0)"/>
     <use xlink:href="#IBMPlexSans-SmBld-3d" transform="translate(83.599976 0)"/>
     <use xlink:href="#IBMPlexSans-SmBld-20" transform="translate(143.59996 0)"/>
     <use xlink:href="#IBMPlexSans-SmBld-32" transform="translate(167.199951 0)"/>
    </g>
   </g>
   <g id="text_3">
    <!-- d = ∞ -->
    <g style="fill: #9a9ba0" transform="translate(202.386931 180.958655) scale(0.09 -0.09)">
     <defs>
      <path id="IBMPlexSans-SmBld-221e" d="M 1370 602 
Q 787 602 457 947 
Q 128 1293 128 1882 
Q 128 2477 457 2822 
Q 787 3168 1370 3168 
Q 1824 3168 2137 2966 
Q 2451 2765 2611 2291 
L 2650 2291 
Q 2669 2496 2758 2659 
Q 2848 2822 2979 2934 
Q 3110 3046 3270 3107 
Q 3430 3168 3597 3168 
Q 4179 3168 4508 2822 
Q 4838 2477 4838 1882 
Q 4838 1293 4508 947 
Q 4179 602 3597 602 
Q 3142 602 2828 803 
Q 2515 1005 2362 1478 
L 2323 1478 
Q 2298 1274 2208 1110 
Q 2118 947 1987 835 
Q 1856 723 1696 662 
Q 1536 602 1370 602 
z
M 1370 1242 
Q 1658 1242 1862 1402 
Q 2067 1562 2157 1830 
Q 2054 2138 1856 2333 
Q 1658 2528 1370 2528 
Q 1139 2528 1001 2384 
Q 864 2240 864 1971 
L 864 1798 
Q 864 1530 1001 1386 
Q 1139 1242 1370 1242 
z
M 3597 1242 
Q 3834 1242 3968 1386 
Q 4102 1530 4102 1798 
L 4102 1971 
Q 4102 2240 3968 2384 
Q 3834 2528 3597 2528 
Q 3309 2528 3104 2365 
Q 2899 2202 2816 1939 
Q 2918 1632 3113 1437 
Q 3309 1242 3597 1242 
z
" transform="scale(0.015625)"/>
     </defs>
     <use xlink:href="#IBMPlexSans-SmBld-64"/>
     <use xlink:href="#IBMPlexSans-SmBld-20" transform="translate(59.999985 0)"/>
     <use xlink:href="#IBMPlexSans-SmBld-3d" transform="translate(83.599976 0)"/>
     <use xlink:href="#IBMPlexSans-SmBld-20" transform="translate(143.59996 0)"/>
     <use xlink:href="#IBMPlexSans-SmBld-221e" transform="translate(167.199951 0)"/>
    </g>
   </g>
   <g id="text_4">
    <!-- BGE 139 III 391 -->
    <g style="fill: #1c1d20" transform="translate(56.987031 132.82) scale(0.115 -0.115)">
     <defs>
      <path id="IBMPlexSerif-Medium-42" d="M 314 346 
L 781 346 
L 781 4122 
L 314 4122 
L 314 4467 
L 2528 4467 
Q 3187 4467 3520 4172 
Q 3853 3878 3853 3411 
Q 3853 3174 3776 2992 
Q 3699 2810 3574 2682 
Q 3450 2554 3290 2470 
Q 3130 2387 2957 2355 
L 2957 2323 
Q 3136 2304 3325 2233 
Q 3514 2163 3670 2028 
Q 3827 1894 3926 1699 
Q 4026 1504 4026 1242 
Q 4026 659 3674 329 
Q 3322 0 2694 0 
L 314 0 
L 314 346 
z
M 1542 371 
L 2477 371 
Q 2842 371 3040 572 
Q 3238 774 3238 1101 
L 3238 1389 
Q 3238 1715 3040 1916 
Q 2842 2118 2477 2118 
L 1542 2118 
L 1542 371 
z
M 1542 2496 
L 2368 2496 
Q 2714 2496 2890 2675 
Q 3066 2854 3066 3155 
L 3066 3437 
Q 3066 3738 2890 3917 
Q 2714 4096 2368 4096 
L 1542 4096 
L 1542 2496 
z
" transform="scale(0.015625)"/>
      <path id="IBMPlexSerif-Medium-47" d="M 2240 -77 
Q 1818 -77 1466 83 
Q 1114 243 861 540 
Q 608 838 467 1267 
Q 326 1696 326 2234 
Q 326 2790 473 3222 
Q 621 3654 883 3948 
Q 1146 4243 1514 4393 
Q 1882 4544 2317 4544 
Q 2803 4544 3075 4400 
Q 3347 4256 3424 4077 
L 3456 4077 
L 3456 4467 
L 4038 4467 
L 4038 3110 
L 3456 3110 
L 3456 3411 
Q 3456 3757 3197 3949 
Q 2938 4141 2445 4141 
Q 1786 4141 1475 3773 
Q 1165 3405 1165 2726 
L 1165 1741 
Q 1165 1088 1478 723 
Q 1792 358 2330 358 
Q 2803 358 3081 595 
Q 3360 832 3360 1248 
L 3360 1850 
L 2630 1850 
L 2630 2195 
L 4486 2195 
L 4486 1850 
L 4115 1850 
L 4115 0 
L 3840 0 
L 3501 627 
L 3469 627 
Q 3424 512 3325 387 
Q 3226 262 3069 160 
Q 2912 58 2704 -9 
Q 2496 -77 2240 -77 
z
" transform="scale(0.015625)"/>
      <path id="IBMPlexSerif-Medium-45" d="M 314 346 
L 781 346 
L 781 4122 
L 314 4122 
L 314 4467 
L 3731 4467 
L 3731 3341 
L 3149 3341 
L 3149 4090 
L 1542 4090 
L 1542 2502 
L 2630 2502 
L 2630 2957 
L 3053 2957 
L 3053 1670 
L 2630 1670 
L 2630 2125 
L 1542 2125 
L 1542 378 
L 3213 378 
L 3213 1210 
L 3795 1210 
L 3795 0 
L 314 0 
L 314 346 
z
" transform="scale(0.015625)"/>
      <path id="IBMPlexSerif-Medium-20" transform="scale(0.015625)"/>
      <path id="IBMPlexSerif-Medium-31" d="M 563 346 
L 1626 346 
L 1626 3904 
L 512 3443 
L 384 3750 
L 1760 4467 
L 2381 4467 
L 2381 346 
L 3405 346 
L 3405 0 
L 563 0 
L 563 346 
z
" transform="scale(0.015625)"/>
      <path id="IBMPlexSerif-Medium-33" d="M 1715 -77 
Q 1395 -77 1142 -9 
Q 890 58 710 173 
Q 531 288 438 438 
Q 346 589 346 749 
Q 346 966 464 1097 
Q 582 1229 787 1229 
Q 998 1229 1113 1097 
Q 1229 966 1229 781 
Q 1229 646 1155 550 
Q 1082 454 992 403 
L 992 378 
Q 1210 275 1587 275 
Q 2061 275 2313 476 
Q 2566 678 2566 1101 
L 2566 1318 
Q 2566 1722 2326 1933 
Q 2086 2144 1594 2144 
L 1126 2144 
L 1126 2528 
L 1568 2528 
Q 2035 2528 2262 2736 
Q 2490 2944 2490 3270 
L 2490 3475 
Q 2490 3834 2269 4013 
Q 2048 4192 1683 4192 
Q 1498 4192 1350 4166 
Q 1203 4141 1114 4090 
L 1114 4064 
Q 1203 4013 1276 3917 
Q 1350 3821 1350 3686 
Q 1350 3501 1235 3369 
Q 1120 3238 909 3238 
Q 704 3238 585 3369 
Q 467 3501 467 3718 
Q 467 3878 556 4025 
Q 646 4173 816 4288 
Q 986 4403 1232 4473 
Q 1478 4544 1786 4544 
Q 2125 4544 2406 4473 
Q 2688 4403 2886 4265 
Q 3085 4128 3193 3920 
Q 3302 3712 3302 3437 
Q 3302 3219 3212 3040 
Q 3123 2861 2972 2726 
Q 2822 2592 2630 2505 
Q 2438 2419 2240 2381 
L 2240 2349 
Q 2451 2317 2656 2233 
Q 2861 2150 3021 2012 
Q 3181 1875 3280 1676 
Q 3379 1478 3379 1222 
Q 3379 621 2940 272 
Q 2502 -77 1715 -77 
z
" transform="scale(0.015625)"/>
      <path id="IBMPlexSerif-Medium-39" d="M 838 224 
Q 1664 403 2141 947 
Q 2618 1491 2688 2266 
L 2656 2272 
Q 2611 2157 2524 2045 
Q 2438 1933 2307 1840 
Q 2176 1747 2006 1692 
Q 1837 1638 1626 1638 
Q 1011 1638 672 2009 
Q 333 2381 333 3040 
Q 333 3373 445 3651 
Q 557 3930 761 4128 
Q 966 4326 1254 4435 
Q 1542 4544 1894 4544 
Q 2650 4544 3059 4067 
Q 3469 3590 3469 2758 
Q 3469 2125 3273 1625 
Q 3078 1126 2736 771 
Q 2394 416 1930 201 
Q 1466 -13 928 -77 
L 838 224 
z
M 1901 2093 
Q 2118 2093 2265 2163 
Q 2413 2234 2505 2365 
Q 2598 2496 2636 2675 
Q 2675 2854 2675 3066 
L 2675 3194 
Q 2675 3405 2636 3584 
Q 2598 3763 2505 3894 
Q 2413 4026 2265 4096 
Q 2118 4166 1901 4166 
Q 1683 4166 1536 4096 
Q 1389 4026 1296 3894 
Q 1203 3763 1164 3584 
Q 1126 3405 1126 3194 
L 1126 3066 
Q 1126 2854 1164 2675 
Q 1203 2496 1296 2365 
Q 1389 2234 1536 2163 
Q 1683 2093 1901 2093 
z
" transform="scale(0.015625)"/>
      <path id="IBMPlexSerif-Medium-49" d="M 314 346 
L 781 346 
L 781 4122 
L 314 4122 
L 314 4467 
L 2010 4467 
L 2010 4122 
L 1542 4122 
L 1542 346 
L 2010 346 
L 2010 0 
L 314 0 
L 314 346 
z
" transform="scale(0.015625)"/>
     </defs>
     <use xlink:href="#IBMPlexSerif-Medium-42"/>
     <use xlink:href="#IBMPlexSerif-Medium-47" transform="translate(68.499985 0)"/>
     <use xlink:href="#IBMPlexSerif-Medium-45" transform="translate(142.899979 0)"/>
     <use xlink:href="#IBMPlexSerif-Medium-20" transform="translate(207.799973 0)"/>
     <use xlink:href="#IBMPlexSerif-Medium-31" transform="translate(230.999969 0)"/>
     <use xlink:href="#IBMPlexSerif-Medium-33" transform="translate(290.999954 0)"/>
     <use xlink:href="#IBMPlexSerif-Medium-39" transform="translate(350.999939 0)"/>
     <use xlink:href="#IBMPlexSerif-Medium-20" transform="translate(410.999924 0)"/>
     <use xlink:href="#IBMPlexSerif-Medium-49" transform="translate(434.199921 0)"/>
     <use xlink:href="#IBMPlexSerif-Medium-49" transform="translate(470.499908 0)"/>
     <use xlink:href="#IBMPlexSerif-Medium-49" transform="translate(506.799896 0)"/>
     <use xlink:href="#IBMPlexSerif-Medium-20" transform="translate(543.099884 0)"/>
     <use xlink:href="#IBMPlexSerif-Medium-33" transform="translate(566.299881 0)"/>
     <use xlink:href="#IBMPlexSerif-Medium-39" transform="translate(626.299866 0)"/>
     <use xlink:href="#IBMPlexSerif-Medium-31" transform="translate(686.29985 0)"/>
    </g>
   </g>
   <g id="text_5">
    <!-- BGE 139 III 500 -->
    <g style="fill: #1c1d20" transform="translate(307.252813 48.44) scale(0.11 -0.11)">
     <defs>
      <path id="IBMPlexSerif-Medium-35" d="M 1715 -77 
Q 1402 -77 1152 -9 
Q 902 58 729 173 
Q 557 288 464 438 
Q 371 589 371 749 
Q 371 966 489 1097 
Q 608 1229 813 1229 
Q 1024 1229 1139 1097 
Q 1254 966 1254 781 
Q 1254 646 1180 550 
Q 1107 454 1018 403 
L 1018 378 
Q 1114 333 1267 304 
Q 1421 275 1606 275 
Q 2093 275 2342 515 
Q 2592 755 2592 1216 
L 2592 1370 
Q 2592 1811 2371 2054 
Q 2150 2298 1715 2298 
Q 1440 2298 1254 2179 
Q 1069 2061 973 1901 
L 576 1978 
L 742 4467 
L 3194 4467 
L 3194 3763 
L 1056 3763 
L 941 2189 
L 966 2182 
Q 1024 2291 1117 2396 
Q 1210 2502 1338 2582 
Q 1466 2662 1632 2713 
Q 1798 2765 2003 2765 
Q 2310 2765 2566 2672 
Q 2822 2579 3008 2403 
Q 3194 2227 3299 1964 
Q 3405 1702 3405 1357 
Q 3405 1030 3283 768 
Q 3162 506 2941 317 
Q 2720 128 2409 25 
Q 2099 -77 1715 -77 
z
" transform="scale(0.015625)"/>
      <path id="IBMPlexSerif-Medium-30" d="M 1920 301 
Q 2163 301 2323 400 
Q 2483 499 2576 688 
Q 2669 877 2707 1149 
Q 2746 1421 2746 1766 
L 2746 2701 
Q 2746 3046 2707 3318 
Q 2669 3590 2576 3779 
Q 2483 3968 2323 4067 
Q 2163 4166 1920 4166 
Q 1677 4166 1517 4067 
Q 1357 3968 1264 3779 
Q 1171 3590 1132 3318 
Q 1094 3046 1094 2701 
L 1094 1766 
Q 1094 1421 1132 1149 
Q 1171 877 1264 688 
Q 1357 499 1517 400 
Q 1677 301 1920 301 
z
M 1920 -77 
Q 1114 -77 698 515 
Q 282 1107 282 2234 
Q 282 3360 698 3952 
Q 1114 4544 1920 4544 
Q 2726 4544 3142 3952 
Q 3558 3360 3558 2234 
Q 3558 1107 3142 515 
Q 2726 -77 1920 -77 
z
" transform="scale(0.015625)"/>
     </defs>
     <use xlink:href="#IBMPlexSerif-Medium-42"/>
     <use xlink:href="#IBMPlexSerif-Medium-47" transform="translate(68.499985 0)"/>
     <use xlink:href="#IBMPlexSerif-Medium-45" transform="translate(142.899979 0)"/>
     <use xlink:href="#IBMPlexSerif-Medium-20" transform="translate(207.799973 0)"/>
     <use xlink:href="#IBMPlexSerif-Medium-31" transform="translate(230.999969 0)"/>
     <use xlink:href="#IBMPlexSerif-Medium-33" transform="translate(290.999954 0)"/>
     <use xlink:href="#IBMPlexSerif-Medium-39" transform="translate(350.999939 0)"/>
     <use xlink:href="#IBMPlexSerif-Medium-20" transform="translate(410.999924 0)"/>
     <use xlink:href="#IBMPlexSerif-Medium-49" transform="translate(434.199921 0)"/>
     <use xlink:href="#IBMPlexSerif-Medium-49" transform="translate(470.499908 0)"/>
     <use xlink:href="#IBMPlexSerif-Medium-49" transform="translate(506.799896 0)"/>
     <use xlink:href="#IBMPlexSerif-Medium-20" transform="translate(543.099884 0)"/>
     <use xlink:href="#IBMPlexSerif-Medium-35" transform="translate(566.299881 0)"/>
     <use xlink:href="#IBMPlexSerif-Medium-30" transform="translate(626.299866 0)"/>
     <use xlink:href="#IBMPlexSerif-Medium-30" transform="translate(686.29985 0)"/>
    </g>
   </g>
   <g id="text_6">
    <!-- BGE 142 V 234 -->
    <g style="fill: #1c1d20" transform="translate(309.518125 132.68) scale(0.11 -0.11)">
     <defs>
      <path id="IBMPlexSerif-Medium-34" d="M 2208 1030 
L 224 1030 
L 224 1504 
L 2189 4467 
L 2938 4467 
L 2938 1574 
L 3578 1574 
L 3578 1030 
L 2938 1030 
L 2938 0 
L 2208 0 
L 2208 1030 
z
M 672 1574 
L 2208 1574 
L 2208 3846 
L 2176 3846 
L 672 1574 
z
" transform="scale(0.015625)"/>
      <path id="IBMPlexSerif-Medium-32" d="M 320 538 
L 1696 1914 
Q 2003 2221 2182 2531 
Q 2362 2842 2362 3219 
L 2362 3379 
Q 2362 3763 2144 3980 
Q 1926 4198 1549 4198 
Q 1376 4198 1241 4166 
Q 1107 4134 1018 4090 
L 1018 4064 
Q 1107 4013 1180 3917 
Q 1254 3821 1254 3686 
Q 1254 3501 1139 3369 
Q 1024 3238 813 3238 
Q 608 3238 489 3369 
Q 371 3501 371 3718 
Q 371 3885 467 4035 
Q 563 4186 736 4298 
Q 909 4410 1149 4477 
Q 1389 4544 1683 4544 
Q 2387 4544 2780 4221 
Q 3174 3898 3174 3315 
Q 3174 3034 3084 2806 
Q 2995 2579 2844 2377 
Q 2694 2176 2496 1997 
Q 2298 1818 2080 1638 
L 902 659 
L 902 634 
L 2957 634 
L 2957 1235 
L 3341 1235 
L 3341 0 
L 320 0 
L 320 538 
z
" transform="scale(0.015625)"/>
      <path id="IBMPlexSerif-Medium-56" d="M 454 4122 
L 122 4122 
L 122 4467 
L 1786 4467 
L 1786 4122 
L 1235 4122 
L 1862 2170 
L 2317 646 
L 2349 646 
L 2803 2170 
L 3430 4122 
L 2880 4122 
L 2880 4467 
L 4211 4467 
L 4211 4122 
L 3878 4122 
L 2515 0 
L 1818 0 
L 454 4122 
z
" transform="scale(0.015625)"/>
     </defs>
     <use xlink:href="#IBMPlexSerif-Medium-42"/>
     <use xlink:href="#IBMPlexSerif-Medium-47" transform="translate(68.499985 0)"/>
     <use xlink:href="#IBMPlexSerif-Medium-45" transform="translate(142.899979 0)"/>
     <use xlink:href="#IBMPlexSerif-Medium-20" transform="translate(207.799973 0)"/>
     <use xlink:href="#IBMPlexSerif-Medium-31" transform="translate(230.999969 0)"/>
     <use xlink:href="#IBMPlexSerif-Medium-34" transform="translate(290.999954 0)"/>
     <use xlink:href="#IBMPlexSerif-Medium-32" transform="translate(350.999939 0)"/>
     <use xlink:href="#IBMPlexSerif-Medium-20" transform="translate(410.999924 0)"/>
     <use xlink:href="#IBMPlexSerif-Medium-56" transform="translate(434.199921 0)"/>
     <use xlink:href="#IBMPlexSerif-Medium-20" transform="translate(501.899902 0)"/>
     <use xlink:href="#IBMPlexSerif-Medium-32" transform="translate(525.099899 0)"/>
     <use xlink:href="#IBMPlexSerif-Medium-33" transform="translate(585.099884 0)"/>
     <use xlink:href="#IBMPlexSerif-Medium-34" transform="translate(645.099869 0)"/>
    </g>
   </g>
   <g id="text_7">
    <!-- BGE 140 II 123 -->
    <g style="fill: #1c1d20" transform="translate(309.249141 216.92) scale(0.11 -0.11)">
     <use xlink:href="#IBMPlexSerif-Medium-42"/>
     <use xlink:href="#IBMPlexSerif-Medium-47" transform="translate(68.499985 0)"/>
     <use xlink:href="#IBMPlexSerif-Medium-45" transform="translate(142.899979 0)"/>
     <use xlink:href="#IBMPlexSerif-Medium-20" transform="translate(207.799973 0)"/>
     <use xlink:href="#IBMPlexSerif-Medium-31" transform="translate(230.999969 0)"/>
     <use xlink:href="#IBMPlexSerif-Medium-34" transform="translate(290.999954 0)"/>
     <use xlink:href="#IBMPlexSerif-Medium-30" transform="translate(350.999939 0)"/>
     <use xlink:href="#IBMPlexSerif-Medium-20" transform="translate(410.999924 0)"/>
     <use xlink:href="#IBMPlexSerif-Medium-49" transform="translate(434.199921 0)"/>
     <use xlink:href="#IBMPlexSerif-Medium-49" transform="translate(470.499908 0)"/>
     <use xlink:href="#IBMPlexSerif-Medium-20" transform="translate(506.799896 0)"/>
     <use xlink:href="#IBMPlexSerif-Medium-31" transform="translate(529.999893 0)"/>
     <use xlink:href="#IBMPlexSerif-Medium-32" transform="translate(589.999878 0)"/>
     <use xlink:href="#IBMPlexSerif-Medium-33" transform="translate(649.999863 0)"/>
    </g>
   </g>
   <g id="text_8">
    <!-- BGE 138 III 720 -->
    <g style="fill: #1c1d20" transform="translate(205.508562 132.008) scale(0.086 -0.086)">
     <defs>
      <path id="IBMPlexSerif-Medium-38" d="M 1920 -77 
Q 1165 -77 742 259 
Q 320 595 320 1190 
Q 320 1446 413 1644 
Q 506 1843 656 1980 
Q 806 2118 998 2198 
Q 1190 2278 1395 2310 
L 1395 2355 
Q 1222 2381 1052 2461 
Q 883 2541 748 2675 
Q 614 2810 531 2992 
Q 448 3174 448 3405 
Q 448 3942 848 4243 
Q 1248 4544 1920 4544 
Q 2592 4544 2992 4243 
Q 3392 3942 3392 3405 
Q 3392 3174 3309 2992 
Q 3226 2810 3088 2675 
Q 2950 2541 2780 2461 
Q 2611 2381 2438 2355 
L 2438 2310 
Q 2643 2278 2838 2198 
Q 3034 2118 3184 1980 
Q 3334 1843 3427 1644 
Q 3520 1446 3520 1190 
Q 3520 595 3097 259 
Q 2675 -77 1920 -77 
z
M 1920 282 
Q 2349 282 2537 528 
Q 2726 774 2726 1158 
L 2726 1293 
Q 2726 1677 2537 1923 
Q 2349 2170 1920 2170 
Q 1702 2170 1548 2106 
Q 1395 2042 1299 1923 
Q 1203 1805 1158 1645 
Q 1114 1485 1114 1293 
L 1114 1158 
Q 1114 966 1158 806 
Q 1203 646 1299 528 
Q 1395 410 1548 346 
Q 1702 282 1920 282 
z
M 1920 2509 
Q 2118 2509 2252 2573 
Q 2387 2637 2467 2742 
Q 2547 2848 2579 2992 
Q 2611 3136 2611 3302 
L 2611 3398 
Q 2611 3558 2579 3705 
Q 2547 3853 2467 3958 
Q 2387 4064 2252 4128 
Q 2118 4192 1920 4192 
Q 1722 4192 1587 4128 
Q 1453 4064 1373 3958 
Q 1293 3853 1261 3705 
Q 1229 3558 1229 3398 
L 1229 3302 
Q 1229 3136 1261 2992 
Q 1293 2848 1373 2742 
Q 1453 2637 1587 2573 
Q 1722 2509 1920 2509 
z
" transform="scale(0.015625)"/>
      <path id="IBMPlexSerif-Medium-37" d="M 2944 3763 
L 800 3763 
L 800 3053 
L 416 3053 
L 416 4467 
L 3424 4467 
L 3424 3910 
L 1811 0 
L 1126 0 
L 2944 3763 
z
" transform="scale(0.015625)"/>
     </defs>
     <use xlink:href="#IBMPlexSerif-Medium-42"/>
     <use xlink:href="#IBMPlexSerif-Medium-47" transform="translate(68.499985 0)"/>
     <use xlink:href="#IBMPlexSerif-Medium-45" transform="translate(142.899979 0)"/>
     <use xlink:href="#IBMPlexSerif-Medium-20" transform="translate(207.799973 0)"/>
     <use xlink:href="#IBMPlexSerif-Medium-31" transform="translate(230.999969 0)"/>
     <use xlink:href="#IBMPlexSerif-Medium-33" transform="translate(290.999954 0)"/>
     <use xlink:href="#IBMPlexSerif-Medium-38" transform="translate(350.999939 0)"/>
     <use xlink:href="#IBMPlexSerif-Medium-20" transform="translate(410.999924 0)"/>
     <use xlink:href="#IBMPlexSerif-Medium-49" transform="translate(434.199921 0)"/>
     <use xlink:href="#IBMPlexSerif-Medium-49" transform="translate(470.499908 0)"/>
     <use xlink:href="#IBMPlexSerif-Medium-49" transform="translate(506.799896 0)"/>
     <use xlink:href="#IBMPlexSerif-Medium-20" transform="translate(543.099884 0)"/>
     <use xlink:href="#IBMPlexSerif-Medium-37" transform="translate(566.299881 0)"/>
     <use xlink:href="#IBMPlexSerif-Medium-32" transform="translate(626.299866 0)"/>
     <use xlink:href="#IBMPlexSerif-Medium-30" transform="translate(686.29985 0)"/>
    </g>
   </g>
   <g id="text_9">
    <!-- GN = 0.5 -->
    <g style="fill: #4f7aa5" transform="translate(415.8 48.86) scale(0.125 -0.125)">
     <defs>
      <path id="IBMPlexSerif-SemiBold-47" d="M 2278 -77 
Q 1843 -77 1484 83 
Q 1126 243 870 540 
Q 614 838 470 1264 
Q 326 1690 326 2227 
Q 326 2790 480 3222 
Q 634 3654 909 3948 
Q 1184 4243 1555 4393 
Q 1926 4544 2362 4544 
Q 2829 4544 3094 4400 
Q 3360 4256 3443 4090 
L 3475 4090 
L 3475 4467 
L 4134 4467 
L 4134 3078 
L 3475 3078 
L 3475 3373 
Q 3475 3712 3241 3907 
Q 3008 4102 2528 4102 
Q 1907 4102 1609 3766 
Q 1312 3430 1312 2778 
L 1312 1677 
Q 1312 1062 1597 729 
Q 1882 397 2381 397 
Q 2842 397 3085 627 
Q 3328 858 3328 1242 
L 3328 1837 
L 2643 1837 
L 2643 2227 
L 4570 2227 
L 4570 1837 
L 4218 1837 
L 4218 0 
L 3904 0 
L 3539 634 
L 3507 634 
Q 3469 518 3366 393 
Q 3264 269 3104 163 
Q 2944 58 2736 -9 
Q 2528 -77 2278 -77 
z
" transform="scale(0.015625)"/>
      <path id="IBMPlexSerif-SemiBold-4e" d="M 288 384 
L 742 384 
L 742 4083 
L 288 4083 
L 288 4467 
L 1824 4467 
L 3821 1165 
L 3853 1165 
L 3853 4083 
L 3398 4083 
L 3398 4467 
L 4768 4467 
L 4768 4083 
L 4314 4083 
L 4314 0 
L 3526 0 
L 1235 3757 
L 1203 3757 
L 1203 384 
L 1658 384 
L 1658 0 
L 288 0 
L 288 384 
z
" transform="scale(0.015625)"/>
      <path id="IBMPlexSerif-SemiBold-20" transform="scale(0.015625)"/>
      <path id="IBMPlexSerif-SemiBold-3d" d="M 429 1510 
L 3411 1510 
L 3411 1011 
L 429 1011 
L 429 1510 
z
M 429 2893 
L 3411 2893 
L 3411 2394 
L 429 2394 
L 429 2893 
z
" transform="scale(0.015625)"/>
      <path id="IBMPlexSerif-SemiBold-30" d="M 1920 339 
Q 2150 339 2291 435 
Q 2432 531 2509 713 
Q 2586 896 2611 1161 
Q 2637 1427 2637 1766 
L 2637 2701 
Q 2637 3040 2611 3305 
Q 2586 3571 2509 3753 
Q 2432 3936 2291 4032 
Q 2150 4128 1920 4128 
Q 1690 4128 1549 4032 
Q 1408 3936 1331 3753 
Q 1254 3571 1228 3305 
Q 1203 3040 1203 2701 
L 1203 1766 
Q 1203 1427 1228 1161 
Q 1254 896 1331 713 
Q 1408 531 1549 435 
Q 1690 339 1920 339 
z
M 1920 -77 
Q 1088 -77 669 518 
Q 250 1114 250 2234 
Q 250 3354 669 3949 
Q 1088 4544 1920 4544 
Q 2752 4544 3171 3949 
Q 3590 3354 3590 2234 
Q 3590 1114 3171 518 
Q 2752 -77 1920 -77 
z
" transform="scale(0.015625)"/>
      <path id="IBMPlexSerif-SemiBold-2e" d="M 890 -77 
Q 640 -77 502 70 
Q 365 218 365 429 
L 365 461 
Q 365 672 502 819 
Q 640 966 890 966 
Q 1139 966 1276 819 
Q 1414 672 1414 461 
L 1414 429 
Q 1414 218 1276 70 
Q 1139 -77 890 -77 
z
" transform="scale(0.015625)"/>
      <path id="IBMPlexSerif-SemiBold-35" d="M 1722 -77 
Q 1395 -77 1136 -9 
Q 877 58 697 173 
Q 518 288 425 441 
Q 333 595 333 768 
Q 333 998 464 1139 
Q 595 1280 819 1280 
Q 1043 1280 1168 1142 
Q 1293 1005 1293 800 
Q 1293 672 1225 563 
Q 1158 454 1056 410 
L 1056 378 
Q 1254 294 1568 294 
Q 2016 294 2253 521 
Q 2490 749 2490 1216 
L 2490 1376 
Q 2490 1805 2285 2029 
Q 2080 2253 1677 2253 
Q 1427 2253 1244 2137 
Q 1062 2022 973 1869 
L 544 1958 
L 710 4467 
L 3238 4467 
L 3238 3654 
L 1062 3654 
L 954 2182 
L 979 2182 
Q 1037 2291 1126 2396 
Q 1216 2502 1347 2585 
Q 1478 2669 1648 2720 
Q 1818 2771 2042 2771 
Q 2355 2771 2611 2678 
Q 2867 2586 3052 2410 
Q 3238 2234 3340 1971 
Q 3443 1709 3443 1376 
Q 3443 1043 3324 774 
Q 3206 506 2982 317 
Q 2758 128 2438 25 
Q 2118 -77 1722 -77 
z
" transform="scale(0.015625)"/>
     </defs>
     <use xlink:href="#IBMPlexSerif-SemiBold-47"/>
     <use xlink:href="#IBMPlexSerif-SemiBold-4e" transform="translate(75.899994 0)"/>
     <use xlink:href="#IBMPlexSerif-SemiBold-20" transform="translate(154.599976 0)"/>
     <use xlink:href="#IBMPlexSerif-SemiBold-3d" transform="translate(177.799973 0)"/>
     <use xlink:href="#IBMPlexSerif-SemiBold-20" transform="translate(237.799957 0)"/>
     <use xlink:href="#IBMPlexSerif-SemiBold-30" transform="translate(260.999954 0)"/>
     <use xlink:href="#IBMPlexSerif-SemiBold-2e" transform="translate(320.999939 0)"/>
     <use xlink:href="#IBMPlexSerif-SemiBold-35" transform="translate(348.799927 0)"/>
    </g>
   </g>
   <g id="text_10">
    <!-- GN = 0.33 -->
    <g style="fill: #4f7aa5" transform="translate(415.8 133.1) scale(0.125 -0.125)">
     <defs>
      <path id="IBMPlexSerif-SemiBold-33" d="M 1722 -77 
Q 1389 -77 1126 -9 
Q 864 58 685 173 
Q 506 288 410 441 
Q 314 595 314 768 
Q 314 998 445 1139 
Q 576 1280 800 1280 
Q 1024 1280 1149 1142 
Q 1274 1005 1274 800 
Q 1274 672 1206 563 
Q 1139 454 1037 410 
L 1037 378 
Q 1139 333 1273 313 
Q 1408 294 1555 294 
Q 2010 294 2243 480 
Q 2477 666 2477 1101 
L 2477 1312 
Q 2477 1715 2246 1920 
Q 2016 2125 1530 2125 
L 1101 2125 
L 1101 2554 
L 1517 2554 
Q 1978 2554 2192 2752 
Q 2406 2950 2406 3277 
L 2406 3456 
Q 2406 3802 2198 3987 
Q 1990 4173 1645 4173 
Q 1331 4173 1152 4090 
L 1152 4058 
Q 1254 4013 1321 3904 
Q 1389 3795 1389 3667 
Q 1389 3462 1264 3324 
Q 1139 3187 915 3187 
Q 691 3187 560 3328 
Q 429 3469 429 3699 
Q 429 3866 518 4019 
Q 608 4173 781 4288 
Q 954 4403 1206 4473 
Q 1459 4544 1786 4544 
Q 2541 4544 2950 4269 
Q 3360 3994 3360 3450 
Q 3360 3232 3261 3046 
Q 3162 2861 3005 2723 
Q 2848 2586 2643 2496 
Q 2438 2406 2227 2374 
L 2227 2342 
Q 2451 2310 2668 2230 
Q 2886 2150 3056 2016 
Q 3226 1882 3328 1686 
Q 3430 1491 3430 1229 
Q 3430 627 2992 275 
Q 2554 -77 1722 -77 
z
" transform="scale(0.015625)"/>
     </defs>
     <use xlink:href="#IBMPlexSerif-SemiBold-47"/>
     <use xlink:href="#IBMPlexSerif-SemiBold-4e" transform="translate(75.899994 0)"/>
     <use xlink:href="#IBMPlexSerif-SemiBold-20" transform="translate(154.599976 0)"/>
     <use xlink:href="#IBMPlexSerif-SemiBold-3d" transform="translate(177.799973 0)"/>
     <use xlink:href="#IBMPlexSerif-SemiBold-20" transform="translate(237.799957 0)"/>
     <use xlink:href="#IBMPlexSerif-SemiBold-30" transform="translate(260.999954 0)"/>
     <use xlink:href="#IBMPlexSerif-SemiBold-2e" transform="translate(320.999939 0)"/>
     <use xlink:href="#IBMPlexSerif-SemiBold-33" transform="translate(348.799927 0)"/>
     <use xlink:href="#IBMPlexSerif-SemiBold-33" transform="translate(408.799911 0)"/>
    </g>
   </g>
   <g id="text_11">
    <!-- GN = 0 -->
    <g style="fill: #9a8e76" transform="translate(415.8 217.34) scale(0.125 -0.125)">
     <use xlink:href="#IBMPlexSerif-SemiBold-47"/>
     <use xlink:href="#IBMPlexSerif-SemiBold-4e" transform="translate(75.899994 0)"/>
     <use xlink:href="#IBMPlexSerif-SemiBold-20" transform="translate(154.599976 0)"/>
     <use xlink:href="#IBMPlexSerif-SemiBold-3d" transform="translate(177.799973 0)"/>
     <use xlink:href="#IBMPlexSerif-SemiBold-20" transform="translate(237.799957 0)"/>
     <use xlink:href="#IBMPlexSerif-SemiBold-30" transform="translate(260.999954 0)"/>
    </g>
   </g>
   <g id="patch_17">
    <path d="M 79.11 94.0896 
L 120.69 94.0896 
Q 125.55 94.0896 125.55 91.7568 
L 125.55 90.72 
Q 125.55 88.3872 120.69 88.3872 
L 79.11 88.3872 
Q 74.25 88.3872 74.25 90.72 
L 74.25 91.7568 
Q 74.25 94.0896 79.11 94.0896 
z
" clip-path="url(#p1193a89e5f)" style="fill: #ffffff; stroke: #22466e; stroke-width: 0.7; stroke-linejoin: miter"/>
   </g>
   <g id="patch_18">
    <path d="M 334.26 24.7536 
L 362.34 24.7536 
Q 367.2 24.7536 367.2 22.4208 
L 367.2 21.384 
Q 367.2 19.0512 362.34 19.0512 
L 334.26 19.0512 
Q 329.4 19.0512 329.4 21.384 
L 329.4 22.4208 
Q 329.4 24.7536 334.26 24.7536 
z
" clip-path="url(#p1193a89e5f)" style="fill: #ffffff; stroke: #4f7aa5; stroke-width: 0.7; stroke-linejoin: miter"/>
   </g>
   <g id="patch_19">
    <path d="M 334.26 108.9936 
L 362.34 108.9936 
Q 367.2 108.9936 367.2 106.6608 
L 367.2 105.624 
Q 367.2 103.2912 362.34 103.2912 
L 334.26 103.2912 
Q 329.4 103.2912 329.4 105.624 
L 329.4 106.6608 
Q 329.4 108.9936 334.26 108.9936 
z
" clip-path="url(#p1193a89e5f)" style="fill: #ffffff; stroke: #4f7aa5; stroke-width: 0.7; stroke-linejoin: miter"/>
   </g>
   <g id="patch_20">
    <path d="M 334.26 193.2336 
L 362.34 193.2336 
Q 367.2 193.2336 367.2 190.9008 
L 367.2 189.864 
Q 367.2 187.5312 362.34 187.5312 
L 334.26 187.5312 
Q 329.4 187.5312 329.4 189.864 
L 329.4 190.9008 
Q 329.4 193.2336 334.26 193.2336 
z
" clip-path="url(#p1193a89e5f)" style="fill: #ffffff; stroke: #9a8e76; stroke-width: 0.7; stroke-linejoin: miter"/>
   </g>
   <g id="text_12">
    <!-- GROUND TRUTH -->
    <g style="fill: #22466e" transform="translate(76.168531 92.9124) scale(0.062 -0.062)">
     <defs>
      <path id="IBMPlexSans-SmBld-47" d="M 3373 691 
L 3347 691 
Q 3290 365 2986 144 
Q 2682 -77 2176 -77 
Q 1779 -77 1443 70 
Q 1107 218 860 509 
Q 614 800 473 1229 
Q 333 1658 333 2221 
Q 333 2784 477 3216 
Q 621 3648 883 3942 
Q 1146 4237 1510 4390 
Q 1875 4544 2323 4544 
Q 2925 4544 3347 4281 
Q 3770 4019 4013 3526 
L 3328 3123 
Q 3206 3411 2966 3603 
Q 2726 3795 2323 3795 
Q 1824 3795 1526 3491 
Q 1229 3187 1229 2592 
L 1229 1875 
Q 1229 1286 1529 979 
Q 1830 672 2336 672 
Q 2534 672 2707 720 
Q 2880 768 3008 864 
Q 3136 960 3213 1101 
Q 3290 1242 3290 1434 
L 3290 1722 
L 2413 1722 
L 2413 2432 
L 4102 2432 
L 4102 0 
L 3373 0 
L 3373 691 
z
" transform="scale(0.015625)"/>
      <path id="IBMPlexSans-SmBld-52" d="M 1370 0 
L 525 0 
L 525 4467 
L 2541 4467 
Q 2848 4467 3091 4371 
Q 3334 4275 3504 4092 
Q 3674 3910 3766 3654 
Q 3859 3398 3859 3085 
Q 3859 2624 3651 2291 
Q 3443 1958 3027 1818 
L 3942 0 
L 3002 0 
L 2170 1722 
L 1370 1722 
L 1370 0 
z
M 2458 2432 
Q 2701 2432 2841 2563 
Q 2982 2694 2982 2938 
L 2982 3232 
Q 2982 3475 2841 3603 
Q 2701 3731 2458 3731 
L 1370 3731 
L 1370 2432 
L 2458 2432 
z
" transform="scale(0.015625)"/>
      <path id="IBMPlexSans-SmBld-4f" d="M 2278 -77 
Q 1837 -77 1478 70 
Q 1120 218 867 512 
Q 614 806 473 1235 
Q 333 1664 333 2234 
Q 333 2797 473 3229 
Q 614 3661 867 3955 
Q 1120 4250 1478 4397 
Q 1837 4544 2278 4544 
Q 2720 4544 3078 4397 
Q 3437 4250 3693 3955 
Q 3949 3661 4086 3229 
Q 4224 2797 4224 2234 
Q 4224 1664 4086 1235 
Q 3949 806 3693 512 
Q 3437 218 3078 70 
Q 2720 -77 2278 -77 
z
M 2278 672 
Q 2758 672 3043 992 
Q 3328 1312 3328 1888 
L 3328 2579 
Q 3328 3155 3043 3475 
Q 2758 3795 2278 3795 
Q 1798 3795 1513 3475 
Q 1229 3155 1229 2579 
L 1229 1888 
Q 1229 1312 1513 992 
Q 1798 672 2278 672 
z
" transform="scale(0.015625)"/>
      <path id="IBMPlexSans-SmBld-55" d="M 1325 4467 
L 1325 1722 
Q 1325 1197 1526 934 
Q 1728 672 2208 672 
Q 2688 672 2889 934 
Q 3091 1197 3091 1722 
L 3091 4467 
L 3923 4467 
L 3923 1830 
Q 3923 1338 3830 979 
Q 3738 621 3533 384 
Q 3328 147 2998 35 
Q 2669 -77 2202 -77 
Q 1728 -77 1405 35 
Q 1082 147 877 384 
Q 672 621 582 979 
Q 493 1338 493 1830 
L 493 4467 
L 1325 4467 
z
" transform="scale(0.015625)"/>
      <path id="IBMPlexSans-SmBld-4e" d="M 1805 2291 
L 1344 3219 
L 1325 3219 
L 1325 0 
L 525 0 
L 525 4467 
L 1453 4467 
L 2797 2176 
L 3258 1248 
L 3277 1248 
L 3277 4467 
L 4077 4467 
L 4077 0 
L 3149 0 
L 1805 2291 
z
" transform="scale(0.015625)"/>
      <path id="IBMPlexSans-SmBld-44" d="M 525 4467 
L 2150 4467 
Q 2586 4467 2941 4326 
Q 3296 4186 3549 3907 
Q 3802 3629 3939 3209 
Q 4077 2790 4077 2234 
Q 4077 1677 3939 1257 
Q 3802 838 3549 560 
Q 3296 282 2941 141 
Q 2586 0 2150 0 
L 525 0 
L 525 4467 
z
M 2150 749 
Q 2624 749 2902 1027 
Q 3181 1306 3181 1882 
L 3181 2586 
Q 3181 3162 2902 3440 
Q 2624 3718 2150 3718 
L 1370 3718 
L 1370 749 
L 2150 749 
z
" transform="scale(0.015625)"/>
      <path id="IBMPlexSans-SmBld-54" d="M 2278 3718 
L 2278 0 
L 1434 0 
L 1434 3718 
L 166 3718 
L 166 4467 
L 3546 4467 
L 3546 3718 
L 2278 3718 
z
" transform="scale(0.015625)"/>
      <path id="IBMPlexSans-SmBld-48" d="M 3232 1888 
L 1370 1888 
L 1370 0 
L 525 0 
L 525 4467 
L 1370 4467 
L 1370 2637 
L 3232 2637 
L 3232 4467 
L 4077 4467 
L 4077 0 
L 3232 0 
L 3232 1888 
z
" transform="scale(0.015625)"/>
     </defs>
     <use xlink:href="#IBMPlexSans-SmBld-47"/>
     <use xlink:href="#IBMPlexSans-SmBld-52" transform="translate(71.199982 0)"/>
     <use xlink:href="#IBMPlexSans-SmBld-4f" transform="translate(137.599976 0)"/>
     <use xlink:href="#IBMPlexSans-SmBld-55" transform="translate(208.799957 0)"/>
     <use xlink:href="#IBMPlexSans-SmBld-4e" transform="translate(277.799942 0)"/>
     <use xlink:href="#IBMPlexSans-SmBld-44" transform="translate(349.699936 0)"/>
     <use xlink:href="#IBMPlexSans-SmBld-20" transform="translate(418.59993 0)"/>
     <use xlink:href="#IBMPlexSans-SmBld-54" transform="translate(442.199921 0)"/>
     <use xlink:href="#IBMPlexSans-SmBld-52" transform="translate(500.199905 0)"/>
     <use xlink:href="#IBMPlexSans-SmBld-55" transform="translate(566.599899 0)"/>
     <use xlink:href="#IBMPlexSans-SmBld-54" transform="translate(635.599884 0)"/>
     <use xlink:href="#IBMPlexSans-SmBld-48" transform="translate(693.599869 0)"/>
    </g>
   </g>
   <g id="text_13">
    <!-- RETRIEVT -->
    <g style="fill: #4f7aa5" transform="translate(333.577906 23.5764) scale(0.062 -0.062)">
     <defs>
      <path id="IBMPlexSans-SmBld-45" d="M 525 0 
L 525 4467 
L 3469 4467 
L 3469 3718 
L 1370 3718 
L 1370 2637 
L 3226 2637 
L 3226 1888 
L 1370 1888 
L 1370 749 
L 3469 749 
L 3469 0 
L 525 0 
z
" transform="scale(0.015625)"/>
      <path id="IBMPlexSans-SmBld-49" d="M 339 0 
L 339 678 
L 928 678 
L 928 3789 
L 339 3789 
L 339 4467 
L 2368 4467 
L 2368 3789 
L 1773 3789 
L 1773 678 
L 2368 678 
L 2368 0 
L 339 0 
z
" transform="scale(0.015625)"/>
      <path id="IBMPlexSans-SmBld-56" d="M 1562 0 
L 102 4467 
L 966 4467 
L 1651 2291 
L 2048 806 
L 2067 806 
L 2458 2291 
L 3142 4467 
L 3981 4467 
L 2522 0 
L 1562 0 
z
" transform="scale(0.015625)"/>
     </defs>
     <use xlink:href="#IBMPlexSans-SmBld-52"/>
     <use xlink:href="#IBMPlexSans-SmBld-45" transform="translate(66.399994 0)"/>
     <use xlink:href="#IBMPlexSans-SmBld-54" transform="translate(126.399979 0)"/>
     <use xlink:href="#IBMPlexSans-SmBld-52" transform="translate(184.399963 0)"/>
     <use xlink:href="#IBMPlexSans-SmBld-49" transform="translate(250.799957 0)"/>
     <use xlink:href="#IBMPlexSans-SmBld-45" transform="translate(293.099945 0)"/>
     <use xlink:href="#IBMPlexSans-SmBld-56" transform="translate(353.09993 0)"/>
     <use xlink:href="#IBMPlexSans-SmBld-54" transform="translate(416.899918 0)"/>
    </g>
   </g>
   <g id="text_14">
    <!-- RETRIEVT -->
    <g style="fill: #4f7aa5" transform="translate(333.577906 107.8164) scale(0.062 -0.062)">
     <use xlink:href="#IBMPlexSans-SmBld-52"/>
     <use xlink:href="#IBMPlexSans-SmBld-45" transform="translate(66.399994 0)"/>
     <use xlink:href="#IBMPlexSans-SmBld-54" transform="translate(126.399979 0)"/>
     <use xlink:href="#IBMPlexSans-SmBld-52" transform="translate(184.399963 0)"/>
     <use xlink:href="#IBMPlexSans-SmBld-49" transform="translate(250.799957 0)"/>
     <use xlink:href="#IBMPlexSans-SmBld-45" transform="translate(293.099945 0)"/>
     <use xlink:href="#IBMPlexSans-SmBld-56" transform="translate(353.09993 0)"/>
     <use xlink:href="#IBMPlexSans-SmBld-54" transform="translate(416.899918 0)"/>
    </g>
   </g>
   <g id="text_15">
    <!-- RETRIEVT -->
    <g style="fill: #9a8e76" transform="translate(333.577906 192.0564) scale(0.062 -0.062)">
     <use xlink:href="#IBMPlexSans-SmBld-52"/>
     <use xlink:href="#IBMPlexSans-SmBld-45" transform="translate(66.399994 0)"/>
     <use xlink:href="#IBMPlexSans-SmBld-54" transform="translate(126.399979 0)"/>
     <use xlink:href="#IBMPlexSans-SmBld-52" transform="translate(184.399963 0)"/>
     <use xlink:href="#IBMPlexSans-SmBld-49" transform="translate(250.799957 0)"/>
     <use xlink:href="#IBMPlexSans-SmBld-45" transform="translate(293.099945 0)"/>
     <use xlink:href="#IBMPlexSans-SmBld-56" transform="translate(353.09993 0)"/>
     <use xlink:href="#IBMPlexSans-SmBld-54" transform="translate(416.899918 0)"/>
    </g>
   </g>
  </g>
 </g>
 <defs>
  <clipPath id="p1193a89e5f">
   <rect x="0" y="0" width="540" height="259.2"/>
  </clipPath>
 </defs>
</svg>
